<mxfile host="65bd71144e">
    <diagram id="h591dxZ50lgd1c0ot1hW" name="Page-1">
        <mxGraphModel dx="424" dy="1094" grid="1" gridSize="10" guides="1" tooltips="1" connect="1" arrows="1" fold="1" page="1" pageScale="1" pageWidth="850" pageHeight="1100" math="0" shadow="0">
            <root>
                <mxCell id="0"/>
                <mxCell id="1" parent="0"/>
                <mxCell id="15" value="" style="rounded=0;whiteSpace=wrap;html=1;" vertex="1" parent="1">
                    <mxGeometry x="50" y="150" width="280" height="120" as="geometry"/>
                </mxCell>
                <mxCell id="2" value="ERDs" style="shape=table;startSize=30;container=1;collapsible=0;childLayout=tableLayout;fontSize=16;strokeColor=#000000;fontColor=#000000;" vertex="1" parent="1">
                    <mxGeometry x="50" y="150" width="280" height="120" as="geometry"/>
                </mxCell>
                <mxCell id="3" value="" style="shape=tableRow;horizontal=0;startSize=0;swimlaneHead=0;swimlaneBody=0;strokeColor=#000000;top=0;left=0;bottom=0;right=0;collapsible=0;dropTarget=0;fillColor=none;points=[[0,0.5],[1,0.5]];portConstraint=eastwest;fontSize=16;fontColor=#000000;" vertex="1" parent="2">
                    <mxGeometry y="30" width="280" height="90" as="geometry"/>
                </mxCell>
                <mxCell id="4" value="Name&lt;div&gt;&lt;i&gt;&lt;font style=&quot;font-size: 15px;&quot;&gt;string&lt;/font&gt;&lt;/i&gt;&lt;/div&gt;" style="shape=partialRectangle;html=1;whiteSpace=wrap;connectable=0;strokeColor=#000000;overflow=hidden;fillColor=none;top=0;left=0;bottom=0;right=0;pointerEvents=1;fontSize=16;fontColor=#000000;" vertex="1" parent="3">
                    <mxGeometry width="93" height="90" as="geometry">
                        <mxRectangle width="93" height="90" as="alternateBounds"/>
                    </mxGeometry>
                </mxCell>
                <mxCell id="5" value="&lt;font style=&quot;&quot;&gt;Memory Address&lt;/font&gt;&lt;div&gt;&lt;span style=&quot;font-size: 14px;&quot;&gt;&lt;i&gt;string&lt;/i&gt;&lt;/span&gt;&lt;/div&gt;" style="shape=partialRectangle;html=1;whiteSpace=wrap;connectable=0;strokeColor=#000000;overflow=hidden;fillColor=none;top=0;left=0;bottom=0;right=0;pointerEvents=1;fontSize=16;fontColor=#000000;" vertex="1" parent="3">
                    <mxGeometry x="93" width="94" height="90" as="geometry">
                        <mxRectangle width="94" height="90" as="alternateBounds"/>
                    </mxGeometry>
                </mxCell>
                <mxCell id="6" value="Type&lt;div&gt;&lt;i&gt;&lt;font style=&quot;font-size: 15px;&quot;&gt;string&lt;/font&gt;&lt;/i&gt;&lt;/div&gt;" style="shape=partialRectangle;html=1;whiteSpace=wrap;connectable=0;strokeColor=#000000;overflow=hidden;fillColor=none;top=0;left=0;bottom=0;right=0;pointerEvents=1;fontSize=16;fontColor=#000000;" vertex="1" parent="3">
                    <mxGeometry x="187" width="93" height="90" as="geometry">
                        <mxRectangle width="93" height="90" as="alternateBounds"/>
                    </mxGeometry>
                </mxCell>
            </root>
        </mxGraphModel>
    </diagram>
</mxfile>
